<svg width="21" height="20" viewBox="0 0 21 20" fill="none" xmlns="http://www.w3.org/2000/svg">
<path id="arrow-right-solid (3)" d="M9.24564 1.27373L10.2124 0.307002C10.6217 -0.102334 11.2836 -0.102334 11.6886 0.307002L20.1541 8.7681C20.5634 9.17744 20.5634 9.83935 20.1541 10.2443L11.6886 18.7098C11.2793 19.1191 10.6174 19.1191 10.2124 18.7098L9.24564 17.7431C8.83194 17.3294 8.84065 16.6544 9.26306 16.2494L14.5104 11.2503H1.99513C1.41596 11.2503 0.950012 10.7843 0.950012 10.2051V8.81165C0.950012 8.23248 1.41596 7.76653 1.99513 7.76653H14.5104L9.26305 2.76739C8.8363 2.3624 8.82759 1.68743 9.24564 1.27373Z" fill="#E15E2A"/>
</svg>
