<svg width="28" height="28" viewBox="0 0 28 28" fill="none" xmlns="http://www.w3.org/2000/svg">
<path id="search-solid (3)" d="M27.2122 23.4882L21.9224 18.1984C21.6837 17.9597 21.36 17.827 21.0205 17.827H20.1557C21.62 15.9541 22.4902 13.5984 22.4902 11.0358C22.4902 4.93958 17.5506 0 11.4544 0C5.35815 0 0.418579 4.93958 0.418579 11.0358C0.418579 17.132 5.35815 22.0716 11.4544 22.0716C14.017 22.0716 16.3727 21.2014 18.2456 19.7371V20.6019C18.2456 20.9415 18.3783 21.2651 18.617 21.5039L23.9068 26.7936C24.4055 27.2923 25.212 27.2923 25.7054 26.7936L27.2069 25.2921C27.7056 24.7934 27.7056 23.9869 27.2122 23.4882ZM11.4544 17.827C7.70326 17.827 4.66311 14.7922 4.66311 11.0358C4.66311 7.28468 7.69795 4.24453 11.4544 4.24453C15.2055 4.24453 18.2456 7.27937 18.2456 11.0358C18.2456 14.7869 15.2108 17.827 11.4544 17.827Z" fill="black"/>
</svg>
